<svg version="1.1" id="Layer_1" xmlns="http://www.w3.org/2000/svg" xmlns:xlink="http://www.w3.org/1999/xlink" x="0px" y="0px"
	 width="100%" viewBox="0 0 528 1024" enable-background="new 0 0 528 1024" xml:space="preserve">
<path fill="#000000" opacity="1.000000" stroke="none" 
	d="
M254.795929,92.280731 
	C271.250183,125.667046 283.876343,160.312027 299.052307,193.842285 
	C310.997864,220.235123 323.475861,246.386749 335.459595,272.762604 
	C344.756195,293.224182 353.706055,313.844299 362.660858,334.458740 
	C363.699615,336.850067 365.040344,338.075684 367.468658,338.899475 
	C375.314789,341.561279 377.113739,346.794403 372.835236,354.017609 
	C368.951202,360.574768 362.861725,364.716217 356.365326,368.175751 
	C353.160706,369.882263 352.676025,371.642242 353.892334,374.879242 
	C359.104492,388.751190 364.025024,402.732880 369.257416,416.596985 
	C370.707886,420.440155 372.742096,423.606232 377.599884,424.778503 
	C384.415192,426.423126 387.298553,433.904327 384.427368,440.471130 
	C381.926971,446.189789 377.611053,450.310852 372.321228,453.371277 
	C369.173035,455.192688 368.646179,457.144043 369.850525,460.657928 
	C374.224335,473.419250 378.877808,486.069427 383.698914,498.665558 
	C384.587402,500.986938 385.780457,502.511780 387.971558,503.788452 
	C395.423737,508.130615 396.370392,514.132690 390.710999,520.731628 
	C385.602203,526.688599 378.808136,530.308533 371.811249,533.508728 
	C367.572449,535.447510 363.266022,537.291687 358.857361,538.787659 
	C355.660156,539.872559 354.429565,541.194763 355.186584,544.877747 
	C360.832397,572.347290 363.478546,600.138184 363.341858,628.179077 
	C363.285248,639.797852 364.362305,651.311768 365.887360,662.805359 
	C366.083496,664.283813 366.211029,665.832886 365.997498,667.294800 
	C363.463379,684.642822 368.211945,700.983826 372.912262,717.309875 
	C377.390228,732.863708 380.930023,748.629333 381.963806,764.777588 
	C382.772827,777.414734 380.833618,790.019958 379.758728,802.612244 
	C378.046387,822.672241 376.113617,842.713379 374.351440,862.769287 
	C373.895813,867.954590 374.308441,873.356323 375.884277,878.092590 
	C377.539825,883.068420 380.527557,888.166626 384.329163,891.716248 
	C388.828430,895.917175 393.219696,900.128662 397.330109,904.723816 
	C403.358521,911.463074 412.081665,912.691711 420.226044,914.606445 
	C430.485168,917.018311 432.821991,919.216492 433.508484,929.455872 
	C433.891113,935.163269 429.521423,937.767639 425.766571,940.060120 
	C415.606476,946.263245 391.709198,949.330078 378.893951,936.797607 
	C369.729950,927.835876 357.966949,923.575195 345.022583,922.977905 
	C338.946381,922.697571 332.351013,915.838745 331.917969,909.212402 
	C331.635986,904.897400 331.395172,900.477539 332.754547,896.303894 
	C337.367249,882.141602 333.940308,868.372437 330.821594,854.623291 
	C327.118866,838.299500 319.673248,823.293823 313.890656,807.701843 
	C309.135193,794.879395 307.208252,781.608704 307.885620,767.974670 
	C308.545258,754.696716 307.343597,741.688354 302.667603,729.145996 
	C301.916046,727.130188 301.214783,724.985901 299.970306,723.280457 
	C287.616272,706.349915 281.931885,687.030396 279.880859,666.528015 
	C279.043121,658.153748 275.009888,651.012390 272.348022,643.354980 
	C265.684387,624.185913 258.035950,605.321655 255.628632,584.940735 
	C255.419662,583.171631 254.961182,581.501160 252.648987,581.843750 
	C250.627136,582.143250 249.919998,583.619507 250.055496,585.491577 
	C250.439667,590.800232 250.834274,596.109131 251.315979,601.409668 
	C252.403748,613.378540 252.265091,625.320374 251.448288,637.319031 
	C250.770554,647.275208 251.202454,657.264465 252.174713,667.250427 
	C253.690292,682.816711 249.807343,697.677063 245.167587,712.351746 
	C240.482529,727.169739 242.130981,741.513000 247.943405,755.697754 
	C254.359375,771.355713 259.248016,787.366882 258.331421,804.632935 
	C257.771790,815.174866 254.538391,825.230591 253.087097,835.600708 
	C250.204819,856.195862 249.113632,876.676453 256.592346,896.706116 
	C259.398529,904.221619 258.689911,912.251831 258.435608,919.971130 
	C258.272919,924.909912 254.442093,928.919678 249.671341,931.385498 
	C245.946548,933.310730 242.128815,935.191406 238.044357,935.835266 
	C228.215698,937.384521 222.172928,943.548889 217.303391,951.526001 
	C211.108002,961.675110 202.515671,968.902039 190.532730,970.605774 
	C180.682892,972.006226 171.193390,971.070557 162.871841,964.090332 
	C151.186279,954.288513 153.684921,932.943298 168.129272,927.627075 
	C176.842484,924.420105 185.543900,921.118835 193.604401,916.215393 
	C201.750412,911.259949 208.748672,905.225647 213.449448,897.053284 
	C216.008102,892.604980 216.248566,887.141846 215.246170,881.980896 
	C213.877029,874.931763 211.415970,868.257874 208.378052,861.704102 
	C199.980209,843.586914 191.077133,825.675781 184.979584,806.569214 
	C179.249634,788.614502 176.428009,770.401611 178.446457,751.486328 
	C179.557068,741.078369 180.062012,730.509399 178.945740,720.111267 
	C178.209274,713.251038 175.037140,706.683838 173.900879,699.828796 
	C170.906845,681.765625 163.811203,665.111633 157.330215,648.192444 
	C148.887756,626.152649 144.704758,603.071655 141.689743,579.756104 
	C141.647110,579.426392 141.665070,579.089233 141.629105,578.758301 
	C140.290802,566.446777 140.274857,566.592224 128.055542,565.285583 
	C120.101357,564.435059 112.165108,563.107605 105.049782,559.114746 
	C97.783295,555.036987 96.725632,549.784729 101.624290,543.047485 
	C105.154182,538.192749 103.695190,532.403381 104.479851,527.087097 
	C106.177315,515.586365 106.929810,503.949249 108.355446,492.403259 
	C108.744858,489.249451 107.829941,487.722961 104.920525,486.914124 
	C99.868141,485.509521 95.348793,483.079010 91.473061,479.509155 
	C85.599464,474.099030 85.607323,467.477966 91.645569,462.376984 
	C93.265305,461.008728 94.446999,459.624359 94.610786,457.445496 
	C95.359047,447.491119 96.709282,437.608612 98.393044,427.775391 
	C98.826935,425.241455 97.972878,423.995544 95.528175,423.553284 
	C93.409546,423.170074 91.208839,422.934357 89.225334,422.166199 
	C82.569504,419.588776 80.178596,413.305267 83.836411,407.254456 
	C85.755913,404.079193 86.067909,401.133881 85.991249,397.466248 
	C85.632484,380.303986 83.822372,363.252106 82.597389,346.161041 
	C81.348969,328.742859 79.452545,311.372040 78.089523,293.960938 
	C76.790497,277.367188 75.958405,260.736816 74.654823,244.143463 
	C73.313538,227.070099 71.588394,210.027252 70.147247,192.961258 
	C68.915260,178.372101 67.905045,163.764313 66.693581,149.173325 
	C64.945251,128.116257 64.855728,106.928307 61.855061,85.974861 
	C60.716999,78.027901 63.031258,72.276649 70.147293,67.900764 
	C85.048622,58.737450 101.151123,52.420750 117.707451,47.303349 
	C145.997101,38.559296 174.837692,32.913071 204.669617,33.615738 
	C211.055588,33.766155 217.238770,34.900566 223.433929,36.135792 
	C227.632812,36.972977 229.916061,39.474339 231.772064,43.626278 
	C239.041626,59.888523 246.950653,75.864922 254.795929,92.280731 
M244.325119,898.048279 
	C241.015045,896.694458 242.429886,894.017944 243.264114,892.277283 
	C245.112457,888.420471 244.520081,884.935974 243.100067,881.211243 
	C242.036957,878.422607 241.297745,875.492065 240.642899,872.573425 
	C240.271576,870.918457 239.607452,868.933044 242.222031,867.766602 
	C244.700668,870.718872 242.860519,875.657471 247.172821,877.908386 
	C246.167847,870.958130 247.184067,864.031128 246.335770,857.174561 
	C245.837341,853.145752 242.975098,853.011292 239.997528,854.452393 
	C234.078293,857.317383 227.811874,857.557007 221.435181,857.365540 
	C211.389694,857.063904 211.368118,857.096985 214.820236,866.581360 
	C217.269821,873.311401 219.747665,880.025269 220.148865,887.281921 
	C220.292252,889.875488 217.698898,892.657532 219.772476,894.895813 
	C221.698807,896.975037 225.037384,896.662537 227.685867,897.615845 
	C229.095337,898.123169 230.537567,898.540405 231.968521,898.987000 
	C236.435684,900.381287 240.801453,900.439148 245.633987,897.782410 
	C250.674515,894.493835 251.479477,892.414856 248.853607,888.614258 
	C247.031418,891.652710 245.656845,894.677368 244.325119,898.048279 
M88.114731,358.727325 
	C88.929405,372.081451 89.744080,385.435577 90.603607,399.524994 
	C103.826553,391.008636 117.561981,385.497009 131.686935,381.061646 
	C177.468094,366.685791 224.006012,355.313324 271.257324,346.951508 
	C276.585449,346.008606 282.016052,344.510284 287.999603,345.025330 
	C286.714111,347.128296 285.171112,347.128784 283.726471,347.424652 
	C272.638763,349.695679 261.532837,351.885468 250.478027,354.307953 
	C219.740112,361.043610 189.201813,368.588867 158.966415,377.324432 
	C140.077606,382.781799 121.435310,388.967926 103.669899,397.474609 
	C97.999512,400.189789 92.255417,403.050537 88.312080,408.300690 
	C86.776299,410.345398 85.262207,412.716187 87.126923,415.119629 
	C88.917152,417.427063 91.436783,418.863831 94.900040,418.217712 
	C91.436172,413.220917 91.564156,411.027740 96.006866,407.276642 
	C102.425659,401.857117 109.924011,398.168732 117.550323,394.800293 
	C140.999863,384.442932 165.997696,379.357513 190.690811,373.121704 
	C235.744675,361.744110 280.985535,351.423004 327.237244,346.252563 
	C336.463318,345.221191 345.692719,343.481873 355.089386,344.703796 
	C362.699066,345.693359 364.774017,347.301544 366.176636,354.324432 
	C369.099579,352.361267 370.996002,349.478302 370.813751,346.492859 
	C370.645935,343.743225 366.992676,343.865204 364.780518,342.918579 
	C363.882660,342.534424 362.847412,342.444122 361.863586,342.292267 
	C349.755859,340.423157 337.631775,341.097015 325.480225,341.854004 
	C319.351196,342.235748 313.227936,343.754486 307.006287,342.440552 
	C323.476227,336.771912 340.566650,336.468170 358.137970,336.845276 
	C357.760681,335.358459 357.673035,334.540253 357.354279,333.825073 
	C346.373474,309.187195 335.720520,284.395477 324.291107,259.967133 
	C306.152222,221.198486 288.473114,182.223679 270.824829,143.232559 
	C261.829956,123.359848 254.898666,102.628220 245.321609,82.979538 
	C239.417587,70.866646 232.018570,59.441532 227.728058,46.592056 
	C226.084213,41.668991 223.025726,39.682537 218.270248,39.419815 
	C216.440887,39.318752 214.598953,39.147865 212.777069,39.254230 
	C191.525970,40.494930 170.160767,40.290760 149.130295,44.334743 
	C120.892342,49.764668 94.466141,59.915737 69.747505,74.583015 
	C66.921852,76.259674 65.689278,78.070129 66.192368,81.756523 
	C69.232697,104.034683 69.235184,126.555450 71.192253,148.930511 
	C73.148605,171.297333 74.392441,193.730408 76.591560,216.071152 
	C79.802498,248.690903 82.093590,281.372223 84.346214,314.063385 
	C85.352020,328.660065 86.772293,343.228149 88.114731,358.727325 
M355.690308,446.166840 
	C360.825317,443.356323 365.619690,440.124542 369.764038,435.905884 
	C371.954315,433.676270 372.282593,431.781189 370.988281,428.849792 
	C368.957550,424.250671 365.256683,420.757782 363.517914,415.934570 
	C356.066193,395.263977 348.261139,374.720917 340.771271,354.063782 
	C339.713623,351.146851 338.302917,350.074646 335.324066,350.482880 
	C316.865936,353.012604 298.327820,355.046875 279.952942,358.074982 
	C254.006638,362.350769 228.389496,368.358246 202.827057,374.493073 
	C171.883179,381.919434 141.403122,390.875458 112.093941,403.488556 
	C107.846779,405.316284 105.762230,407.800964 105.159081,412.641785 
	C103.103821,429.137451 100.512978,445.567383 98.041565,462.009644 
	C97.116463,468.164307 97.764313,469.319641 103.564079,471.757874 
	C109.768257,474.366150 116.288986,475.712585 122.879135,476.603882 
	C157.540604,481.291748 192.282196,480.650665 227.047241,477.938171 
	C229.600861,477.738953 232.231400,477.147400 234.801529,478.281464 
	C234.233383,480.250214 232.733765,480.061340 231.486771,480.224243 
	C196.674271,484.771881 161.806107,486.093536 126.930267,481.207977 
	C115.981232,479.674164 104.555595,479.136719 95.468193,471.338379 
	C94.543793,470.545105 93.129951,469.843567 91.527107,471.777893 
	C93.590408,476.073883 97.512260,478.332001 101.832939,480.018341 
	C121.742668,487.788971 142.795609,488.775024 163.719330,489.544708 
	C188.050003,490.439758 212.297745,487.552246 236.465347,485.218994 
	C261.624969,482.789917 286.582214,478.587463 311.019562,471.673889 
	C328.334717,466.775146 345.758484,462.335693 361.694916,453.602600 
	C367.867645,450.220001 373.835052,446.605804 378.343323,441.058838 
	C380.662140,438.205933 381.807098,435.193848 378.688049,431.240051 
	C374.948517,436.927307 371.219299,441.964569 365.710266,445.345947 
	C356.732208,450.856689 347.238983,455.293732 337.458740,459.115326 
	C316.219727,467.414337 293.811829,470.919464 271.536224,474.936157 
	C270.516205,475.120056 269.158875,475.632965 268.731689,473.187317 
	C275.643188,471.656799 282.562195,470.171204 289.459045,468.588867 
	C312.051361,463.405518 334.379578,457.425903 355.690308,446.166840 
M145.059631,570.680359 
	C147.659943,591.696350 152.519012,612.236450 158.241043,632.583191 
	C161.709396,644.916260 165.555740,657.134949 170.333633,669.038940 
	C171.369873,671.620728 172.659241,673.530334 175.977005,673.785645 
	C198.926361,675.551636 221.073029,672.538940 242.357986,663.505188 
	C245.672928,662.098206 246.701553,660.229309 246.680984,656.749268 
	C246.636902,649.285522 245.709747,641.903931 246.226868,634.343018 
	C247.110153,621.428040 247.267365,608.429260 246.059570,595.439758 
	C245.520126,589.638184 243.836426,583.743042 245.079880,577.979675 
	C248.073761,577.434998 250.688431,577.390259 252.933121,576.456238 
	C256.914764,574.799561 258.395935,576.393616 259.032837,580.069458 
	C263.347382,604.970276 272.817657,628.305603 280.823792,652.092224 
	C281.936951,655.399475 283.694641,656.515381 286.925934,656.647278 
	C294.279083,656.947449 301.593903,656.319763 308.862518,655.563721 
	C324.497925,653.937561 339.679443,650.435730 353.893677,643.380920 
	C357.031525,641.823486 358.695435,639.916138 358.796570,636.149597 
	C359.405945,613.457825 357.438385,590.965942 354.020782,568.570251 
	C351.485626,551.957275 347.766083,535.585999 344.017639,519.215332 
	C342.420380,512.239929 342.655090,512.127563 335.510406,512.264099 
	C311.849854,512.716187 288.368622,515.292419 264.924377,518.297424 
	C238.045151,521.742798 210.905426,523.056458 184.251068,528.373291 
	C171.357117,530.945312 158.495621,533.608826 145.835175,537.174377 
	C143.351181,537.873962 141.132675,538.560059 141.552048,542.114075 
	C142.642365,551.354492 143.145248,560.664062 145.059631,570.680359 
M313.001862,659.589478 
	C304.929138,660.883606 296.834869,661.793274 288.633087,661.194946 
	C285.610504,660.974487 283.352905,661.427917 283.989197,665.529968 
	C287.048920,685.256836 291.518127,704.392761 304.021973,720.740479 
	C308.759888,726.934937 313.427490,733.275879 316.464966,740.576843 
	C317.163940,742.257019 318.529602,743.957214 317.246918,745.854248 
	C314.709534,745.749268 314.813568,742.464417 312.089478,742.626587 
	C314.231689,755.123169 312.941803,767.612183 313.507202,780.043701 
	C313.862762,787.861938 314.895721,795.649780 317.537750,803.078430 
	C320.494171,811.391113 323.789276,819.583801 326.710052,827.908325 
	C327.956390,831.460632 330.191040,833.320129 333.786407,834.068604 
	C346.772308,836.771851 358.532288,834.161194 369.290100,826.423584 
	C371.655029,824.722595 372.921936,822.781921 373.264435,819.924866 
	C375.224701,803.573914 377.276520,787.209106 377.517303,770.738525 
	C377.770142,753.441895 373.145325,736.883667 368.909973,720.262207 
	C366.869446,712.254211 362.916718,704.879028 361.485016,696.780273 
	C359.828857,687.411865 360.756256,677.941406 361.417664,668.496582 
	C361.915100,661.392822 361.044647,654.379517 358.975677,647.080811 
	C344.173157,653.618469 329.306976,657.586792 313.001862,659.589478 
M202.013245,836.560120 
	C203.175995,839.140808 204.597427,841.639587 205.445374,844.319885 
	C207.009567,849.264160 210.391388,851.224731 215.322433,852.046997 
	C225.687759,853.775330 235.086105,850.800537 244.396515,846.963501 
	C245.916000,846.337158 246.600266,845.088318 246.878769,843.484558 
	C248.812500,832.349976 251.366898,821.287781 252.626877,810.079163 
	C255.101822,788.062256 248.128983,767.769104 239.892548,747.830933 
	C239.589676,752.116821 239.589676,752.116821 238.026398,754.081177 
	C236.288177,752.980042 236.577194,751.171204 236.612976,749.585083 
	C236.956406,734.356750 236.276627,719.171631 242.478363,704.478882 
	C246.660095,694.571777 248.266083,683.674500 247.687225,672.702637 
	C247.447662,668.161926 246.259079,667.451721 242.046448,669.290039 
	C222.062515,678.010437 201.215408,680.922607 179.588913,678.565918 
	C174.448334,678.005859 173.571350,679.011841 174.544800,683.949768 
	C177.149567,697.162659 180.289566,710.238770 184.211990,723.124756 
	C184.550644,724.237305 185.337540,725.587952 184.996857,726.474915 
	C181.475464,735.642151 184.271072,745.278076 182.755524,754.600037 
	C181.875732,760.011536 182.175690,765.561157 182.680557,771.045837 
	C184.783951,793.896240 192.222305,815.185852 202.013245,836.560120 
M366.393799,503.188293 
	C347.614288,502.190094 328.793518,502.359985 309.992279,501.137268 
	C333.218567,498.186127 356.445679,496.661987 380.536804,500.553375 
	C374.575745,486.254242 367.400024,473.480499 363.340424,459.591614 
	C282.433868,490.614319 199.507904,500.087524 113.862152,490.252594 
	C111.147812,505.949951 109.583244,521.829895 107.951309,538.084351 
	C137.710205,523.639160 169.329300,517.869995 200.961121,512.262695 
	C240.875992,505.187073 291.415588,500.706390 296.785889,504.155945 
	C288.138397,505.256897 280.285736,506.373199 272.405609,507.240021 
	C235.501923,511.299438 198.624390,515.455872 162.392212,523.987000 
	C145.025131,528.076172 127.634567,531.972168 111.679955,540.369568 
	C107.504753,542.567139 102.382179,544.980530 102.744576,550.112671 
	C103.112373,555.321350 109.103340,555.608765 113.087433,557.372986 
	C113.425652,557.522705 113.975060,557.802673 114.143974,557.072632 
	C107.803932,553.371033 107.717934,549.292175 113.947937,545.140869 
	C115.606430,544.035767 117.386765,543.104431 119.151527,542.169434 
	C134.042709,534.280273 150.303116,530.537720 166.512451,526.713379 
	C184.524597,522.463806 202.892975,520.247498 221.184998,517.651184 
	C237.667053,515.311829 254.135590,512.569214 270.709290,511.266846 
	C288.467133,509.871490 306.227051,508.281555 324.018280,507.366547 
	C336.973663,506.700287 350.011108,505.596741 362.930695,506.909576 
	C370.336823,507.662140 378.054443,509.026062 384.290009,514.488403 
	C382.604736,517.156006 380.292938,519.140808 379.872986,522.302002 
	C382.504852,522.183594 383.840851,520.532898 385.354797,519.321594 
	C391.802063,514.163086 391.168396,509.152222 383.517090,505.907867 
	C378.395264,503.736084 372.876617,503.317657 366.393799,503.188293 
M226.699799,901.541565 
	C218.123810,899.109863 216.260452,899.529114 215.058411,904.621582 
	C218.483734,904.532654 221.669250,905.350342 224.603470,906.985657 
	C227.043350,908.345520 228.225555,910.457397 227.801788,913.203857 
	C227.155045,917.395325 218.322647,923.821411 214.114594,923.094299 
	C210.222122,922.421753 207.073074,920.852295 207.510712,915.974121 
	C207.628204,914.664734 207.417557,913.272949 205.799774,912.789185 
	C199.550156,917.599854 200.042618,923.544067 206.916138,926.571045 
	C207.518402,926.836243 208.232986,926.861450 208.812775,927.159119 
	C209.740540,927.635498 210.513611,928.386536 210.131821,929.529663 
	C209.758804,930.646484 208.701035,930.946228 207.676208,930.700439 
	C204.069702,929.835510 200.499008,928.854004 199.038055,924.815918 
	C198.602753,923.612854 198.597214,922.067505 196.766113,921.986206 
	C193.405350,925.302856 193.405350,925.302856 201.474472,934.645447 
	C192.665421,936.517700 192.255234,928.467529 188.397171,924.674072 
	C185.497910,926.380676 181.731720,927.370911 180.801834,930.707458 
	C178.744186,938.090454 183.507385,943.469849 187.803772,948.679260 
	C185.801575,950.193665 184.465897,949.353516 183.258224,948.514038 
	C176.653458,943.923035 176.659012,936.994263 177.629593,929.859985 
	C173.525040,930.084473 170.993118,932.188965 168.075546,933.252319 
	C163.318008,934.986267 162.600769,938.113098 164.763336,942.286926 
	C169.221115,950.890686 176.580612,956.292725 185.400650,959.374695 
	C197.249054,963.514832 205.509766,959.411072 210.416122,947.791260 
	C213.321976,940.909241 216.948547,934.559021 224.021271,931.195862 
	C230.774704,927.984619 237.695892,925.128052 244.510361,922.042786 
	C254.856842,917.358521 257.317932,910.044006 252.040726,899.096436 
	C244.421494,905.254150 236.294144,907.487854 226.699799,901.541565 
M345.198395,862.782532 
	C345.345459,866.609802 345.588593,870.438904 344.732483,874.227661 
	C343.319580,880.480652 348.863129,884.385376 350.080780,889.769226 
	C350.177277,890.195984 351.509918,890.509216 352.296722,890.587708 
	C359.100861,891.265747 364.461639,887.836914 369.729187,884.269104 
	C370.951080,883.441528 370.944366,881.905090 370.811096,880.587585 
	C369.412720,866.767639 371.071838,853.022156 371.702332,839.248230 
	C372.001556,832.710999 371.113281,832.130005 364.947571,834.754883 
	C355.891418,838.610229 346.609802,840.695496 336.734711,839.174988 
	C332.615723,838.540771 331.675476,840.549438 332.595520,844.143127 
	C334.783020,852.687256 336.944672,861.238098 339.138611,869.780640 
	C339.334412,870.543152 339.396454,871.483459 341.240997,871.721802 
	C343.201416,864.549622 341.097687,857.248657 341.171570,848.940430 
	C344.701508,853.412292 344.152039,857.867798 345.198395,862.782532 
M375.780792,923.660950 
	C377.866150,925.313171 379.945404,926.973145 382.037964,928.616272 
	C393.255280,937.424438 409.592346,937.823425 421.286255,929.554382 
	C422.368652,928.788879 423.438568,927.963440 424.351562,927.009949 
	C426.045746,925.240723 426.049438,923.618958 423.893982,922.030640 
	C415.920746,916.155151 408.744293,917.521301 403.671326,925.965027 
	C403.252472,926.662170 402.874146,927.478271 401.532806,927.102783 
	C399.219696,924.641663 402.420227,921.181213 400.689423,918.452759 
	C396.091187,919.040955 396.804077,924.549500 393.373413,925.915894 
	C389.042419,922.931519 394.925537,918.480286 391.769684,915.523621 
	C387.962708,915.585449 387.896973,920.989319 383.715607,920.803711 
	C383.701508,915.340332 389.384583,912.548279 389.509644,907.210022 
	C386.977722,907.424011 385.339508,908.741394 383.556732,909.993896 
	C378.985962,913.205139 371.198914,912.628662 368.367432,909.067078 
	C365.119019,904.981384 366.257385,898.706848 371.079651,894.376282 
	C372.191345,893.377991 373.497192,892.590271 374.571075,891.557373 
	C375.274719,890.880615 376.949585,890.755188 376.263489,888.970093 
	C373.027100,888.443420 370.578674,890.434814 367.932739,891.640198 
	C360.401672,895.070740 352.663300,896.742310 344.763641,893.387024 
	C340.322937,891.500854 338.584473,892.851990 338.130554,897.221130 
	C337.976166,898.707275 337.570251,900.168335 337.433685,901.655029 
	C336.596527,910.768677 340.085266,914.661194 349.214508,914.675232 
	C358.827362,914.690002 367.562195,917.273254 375.780792,923.660950 
M370.929962,513.410095 
	C364.635895,512.891724 358.367340,511.989349 352.023254,512.236145 
	C349.783783,512.323303 347.804504,512.787842 348.435944,515.627075 
	C349.466309,520.259888 350.401276,524.944519 352.502350,529.677551 
	C361.635925,526.131042 370.790344,523.413513 377.844391,516.550171 
	C376.186432,513.710144 373.653320,514.366272 370.929962,513.410095 
M137.674698,547.774780 
	C137.479156,545.342712 137.900787,542.756836 135.641754,540.336365 
	C128.453186,543.042969 120.738518,544.817993 114.759377,550.253845 
	C115.799789,552.752258 117.639008,553.204712 119.415466,553.538086 
	C123.009621,554.212585 126.626511,554.781982 130.249420,555.283691 
	C137.659134,556.309875 137.896927,556.071411 137.674698,547.774780 
M174.867249,965.804443 
	C178.469223,966.985413 182.059860,967.357361 186.702515,965.687439 
	C175.414658,961.600464 166.496826,955.892517 160.954681,945.604797 
	C157.856949,952.239807 164.416443,961.675293 174.867249,965.804443 
M374.768707,906.755676 
	C377.941010,907.106018 380.592407,905.852966 383.128662,904.129578 
	C386.237091,902.017334 386.936981,899.923279 383.881104,896.988770 
	C379.791565,893.061462 374.660034,894.115417 371.427979,899.917908 
	C369.660126,903.091858 369.809082,905.695862 374.768707,906.755676 
M359.788849,350.281677 
	C355.359375,349.034210 350.140625,348.204468 347.039459,351.305634 
	C344.743835,353.601257 348.196411,357.622192 349.537842,360.741180 
	C349.643860,360.987640 350.056854,361.102112 350.529266,361.409363 
	C354.111938,359.882935 357.277588,357.559265 360.080963,354.744476 
	C361.278687,353.541931 362.358856,352.130493 359.788849,350.281677 
M215.281372,917.161804 
	C217.782196,916.605957 220.555557,916.628479 222.290558,914.119507 
	C219.454407,912.198669 217.747894,911.580505 215.364670,911.792847 
	C213.933716,911.920227 211.980576,911.633240 211.617340,913.511536 
	C211.219101,915.571106 212.244034,917.053894 215.281372,917.161804 
M344.284821,886.223389 
	C343.778137,884.411133 343.582825,882.347656 341.075500,881.916443 
	C340.319397,886.283203 340.319397,886.283203 344.284821,886.223389 
z"/>
<path fill="#000000" opacity="1.000000" stroke="none" 
	d="
M185.639160,264.272552 
	C182.889420,251.861694 180.193909,239.862534 177.510117,227.860718 
	C176.068832,221.415329 177.816284,219.181595 184.299530,220.047195 
	C186.205414,220.301666 187.181686,219.968460 188.599304,218.948700 
	C194.237427,214.892853 200.812195,215.838486 204.824356,221.535843 
	C210.317245,229.335876 212.306183,238.223099 211.019882,247.602661 
	C210.060791,254.596191 205.569748,257.242279 195.799667,257.338745 
	C194.686691,260.349426 196.332611,263.086731 197.026535,265.849152 
	C197.861099,269.171478 197.420044,271.359131 193.540146,271.923737 
	C190.384079,272.382965 187.031891,273.663574 186.547958,268.579010 
	C186.422928,267.265350 185.989838,265.980957 185.639160,264.272552 
M191.112930,241.274277 
	C191.599075,242.507629 191.984589,243.793411 192.593796,244.962646 
	C193.638580,246.967804 195.017120,248.697098 197.646103,248.022949 
	C200.239136,247.358017 200.805893,245.238068 200.685349,242.948959 
	C200.439758,238.285202 199.825607,233.668732 197.492416,229.506378 
	C196.561630,227.845840 195.189911,226.570587 193.071121,226.906418 
	C190.940475,227.244125 190.142639,228.927704 189.674133,230.767075 
	C188.809021,234.163528 190.223282,237.308426 191.112930,241.274277 
z"/>
<path fill="#000000" opacity="1.000000" stroke="none" 
	d="
M263.995026,239.893997 
	C261.541565,246.017868 256.219299,243.981796 251.708344,245.954010 
	C251.943100,240.724457 253.930298,237.216995 255.392883,233.592667 
	C256.977020,229.667114 256.773071,226.491516 253.694199,223.140945 
	C249.469604,218.543549 245.822662,213.415329 241.900436,208.479675 
	C248.791473,203.895828 251.980286,204.324448 256.268707,209.847626 
	C258.190216,212.322372 260.143433,214.772507 262.030823,217.168457 
	C264.786438,216.282196 264.683563,214.534012 264.269257,212.643188 
	C263.842285,210.694733 263.509918,208.721405 262.990631,206.798233 
	C261.887543,202.713058 264.519714,202.160278 267.547241,201.424759 
	C270.615448,200.679337 272.523315,200.728394 273.367798,204.456482 
	C276.671875,219.042892 280.102692,233.602966 283.726196,248.112961 
	C284.612244,251.661026 282.941071,252.706177 280.176636,253.164627 
	C277.472839,253.613022 274.276093,255.583633 273.230377,250.642700 
	C271.868652,244.208557 270.089752,237.862701 268.287598,230.669601 
	C265.611572,233.831299 265.077362,236.778107 263.995026,239.893997 
z"/>
<path fill="#000000" opacity="1.000000" stroke="none" 
	d="
M215.978470,238.821075 
	C214.413803,231.771301 213.173111,225.065887 211.403015,218.503281 
	C210.473282,215.056381 211.387604,213.293076 214.716095,212.921402 
	C219.301132,212.409409 223.580536,211.251373 227.874496,209.410873 
	C232.679749,207.351257 238.009033,209.944931 240.107742,215.134399 
	C243.858047,224.407761 245.130981,234.371552 247.222916,244.084671 
	C248.131439,248.303024 243.721634,247.095947 241.620987,248.004837 
	C239.273605,249.020477 237.470215,248.190201 236.867065,245.384918 
	C235.506027,239.054413 234.060745,232.741882 232.623901,226.427917 
	C232.329407,225.133896 232.018829,223.828232 231.543243,222.594391 
	C230.854935,220.808746 229.796326,219.183258 227.563156,219.575851 
	C225.303131,219.973129 224.238281,221.613068 224.129318,223.862305 
	C223.883377,228.939087 225.833710,233.642471 226.672287,238.535217 
	C227.035538,240.654678 227.512222,242.792847 228.264755,244.799744 
	C229.986877,249.392380 228.276276,251.384460 223.658295,252.171036 
	C220.274460,252.747391 218.716095,251.830093 218.181366,248.449310 
	C217.689835,245.341537 216.798080,242.297073 215.978470,238.821075 
z"/>
<path fill="#000000" opacity="1.000000" stroke="none" 
	d="
M168.600510,227.271942 
	C175.843719,235.367996 178.304947,244.515564 176.412842,254.769302 
	C175.363129,260.458099 171.485611,263.839874 166.073395,265.030426 
	C160.422302,266.273529 154.975159,265.381989 151.176605,260.469940 
	C145.482620,253.106888 143.512527,244.526489 145.085449,235.517593 
	C146.897629,225.138290 158.626495,221.075607 168.600510,227.271942 
M164.388535,239.264740 
	C162.978210,236.625839 161.716537,233.277847 157.908676,234.522049 
	C154.536819,235.623795 155.053055,238.976746 155.136627,241.794861 
	C155.257324,245.864944 156.503876,249.632629 158.468063,253.150223 
	C159.507751,255.012146 161.112274,256.231598 163.396957,255.690033 
	C165.692444,255.145859 166.452103,253.324310 166.621094,251.191895 
	C166.929962,247.294556 165.884521,243.626297 164.388535,239.264740 
z"/>
<path fill="#000000" opacity="1.000000" stroke="none" 
	d="
M143.846481,254.594818 
	C145.255890,260.300812 145.201385,265.487946 140.141449,268.840759 
	C134.193542,272.782013 127.295845,274.014923 120.569000,271.964355 
	C117.097672,270.906158 118.139191,266.326599 117.150223,263.027069 
	C121.476860,261.831116 125.333984,264.549896 129.247726,263.068512 
	C131.397537,262.254761 134.465363,262.218414 134.105179,259.179321 
	C133.761658,256.280914 130.832993,256.396515 128.489288,256.337982 
	C126.660507,256.292297 124.820625,256.408783 123.002991,256.252197 
	C117.717506,255.796829 114.081268,252.553085 112.910240,247.390594 
	C111.510803,241.221237 113.082779,236.834961 117.837334,233.911774 
	C122.409805,231.100540 127.473007,230.247543 132.710953,230.791916 
	C138.403641,231.383514 136.753693,236.228043 137.773636,239.627197 
	C134.340317,241.487686 131.031143,238.740570 127.823021,239.980270 
	C125.603218,240.838058 122.148575,240.732132 122.700516,244.154480 
	C123.180801,247.132507 126.133125,246.509842 128.483063,246.447174 
	C134.936188,246.275101 140.893951,247.204498 143.846481,254.594818 
z"/>
<path fill="#000000" opacity="1.000000" stroke="none" 
	d="
M132.778534,74.893814 
	C114.203545,80.790802 96.107101,86.811592 78.564705,96.355194 
	C78.808456,92.898094 80.942711,92.372688 82.477707,91.478622 
	C96.536301,83.290100 111.818871,78.054688 127.226662,73.167244 
	C152.604828,65.117149 178.615723,60.712887 205.234879,59.959095 
	C208.684540,59.861412 212.112381,60.052547 215.434326,61.667400 
	C187.565842,63.472076 159.989944,66.820335 132.778534,74.893814 
z"/>
<path fill="#000000" opacity="1.000000" stroke="none" 
	d="
M332.911224,768.452881 
	C332.637909,767.327698 332.255981,766.516846 332.932617,765.771240 
	C340.856018,771.683899 345.580353,817.611694 338.303253,828.205872 
	C339.308899,807.276978 339.879120,787.633789 332.911224,768.452881 
z"/>
<path fill="#000000" opacity="1.000000" stroke="none" 
	d="
M311.631073,705.432739 
	C312.888702,707.813660 313.855164,709.947815 315.107300,711.898621 
	C316.842804,714.602600 318.720184,716.590210 322.170166,718.057617 
	C327.228241,720.209045 331.315491,724.642883 336.720856,728.799683 
	C322.992279,728.913208 305.859192,710.383728 308.421844,699.693848 
	C310.735504,700.812256 310.442200,703.341492 311.631073,705.432739 
z"/>
<path fill="#000000" opacity="1.000000" stroke="none" 
	d="
M357.292511,714.909790 
	C356.115753,724.762146 355.103912,734.208496 348.254639,741.713074 
	C353.007843,728.654297 355.034332,715.325317 353.600800,701.362854 
	C357.193329,705.144653 357.157288,709.820190 357.292511,714.909790 
z"/>
<path fill="#000000" opacity="1.000000" stroke="none" 
	d="
M346.222656,687.141357 
	C350.063629,681.429138 350.886230,675.004456 352.478851,668.333008 
	C356.341400,675.064026 349.470032,692.028259 341.924408,695.471802 
	C341.266632,691.653687 344.931183,690.173462 346.222656,687.141357 
z"/>
<path fill="#000000" opacity="1.000000" stroke="none" 
	d="
M226.245026,801.975342 
	C227.793396,814.804993 231.513901,826.747681 234.140244,838.910522 
	C225.588791,829.925964 218.825790,781.557922 224.807846,771.469666 
	C224.795181,781.522766 224.030045,791.625610 226.245026,801.975342 
z"/>
<path fill="#000000" opacity="1.000000" stroke="none" 
	d="
M225.385803,719.054016 
	C225.825958,724.872314 222.672134,730.698608 218.088074,732.638062 
	C218.276321,727.873779 218.981613,723.546387 221.454971,719.185852 
	C226.260498,710.713623 228.319366,701.304871 228.380966,691.470764 
	C232.091537,701.046509 228.830322,709.874146 225.385803,719.054016 
z"/>
<path fill="#000000" opacity="1.000000" stroke="none" 
	d="
M191.544968,734.263550 
	C190.439545,729.702332 188.215057,725.709961 189.113129,720.233154 
	C191.725311,722.964172 192.016937,725.668762 192.643341,728.112305 
	C194.391861,734.932922 197.550217,741.176270 200.412079,747.527710 
	C202.397278,751.933533 206.183136,751.139648 209.853745,750.021912 
	C212.045059,749.354614 213.528458,747.120789 217.425125,747.143555 
	C214.773346,751.289429 211.613739,753.028625 207.720474,753.570496 
	C203.408737,754.170715 199.530853,752.783325 197.522324,748.914551 
	C195.162277,744.368774 193.577286,739.420593 191.544968,734.263550 
z"/>
<path fill="#000000" opacity="1.000000" stroke="none" 
	d="
M201.859116,714.262329 
	C198.768265,718.074402 195.111267,716.242615 191.756332,714.842285 
	C188.601288,713.525391 186.009323,711.335999 186.148941,707.121033 
	C190.416718,711.692627 195.597778,713.803040 201.859116,714.262329 
z"/>
</svg>