<svg xmlns="http://www.w3.org/2000/svg" viewBox="0 6 61 30" fill="none">
  <!-- Geometric tiger — auto-traced from reference image -->
  <!-- White polygons, no stroke: dark background shows as tiger stripe lines -->

  <polygon points="22.32,30.63 26.09,34.99 29.69,34.81 28.8,33.46 27.39,33.75 25.03,30.98" fill="#F4F4F5"/>
  <polygon points="51.01,29.8 50.66,31.63 49.01,33.16 49.3,34.69 50.89,33.63 52.25,31.22" fill="#F4F4F5"/>
  <polygon points="12.61,28.04 13.14,30.51 13.55,29.51 13.61,29.04" fill="#F4F4F5"/>
  <polygon points="11.72,27.51 11.07,28.04 10.48,33.34 11.43,35.05 14.08,35.16 14.37,34.81 13.61,33.75 12.19,33.57 12.72,31.45" fill="#F4F4F5"/>
  <polygon points="22.21,27.15 21.68,29.86 24.92,30.33 25.5,28.74 23.91,28.21" fill="#F4F4F5"/>
  <polygon points="12.31,26.74 14.08,28.57 15.84,27.33 13.02,25.45" fill="#F4F4F5"/>
  <polygon points="46.47,26.8 48.89,28.27 50.83,26.92 51.07,27.39 49.65,28.63 51.66,29.45 52.42,30.33 52.6,27.74 50.48,25.03" fill="#F4F4F5"/>
  <polygon points="2.18,25.33 4.83,26.33 4.95,25.21 3.42,24.8" fill="#F4F4F5"/>
  <polygon points="7.6,24.27 7.42,24.21 5.65,25.03 5.54,26.21 7.78,25.39" fill="#F4F4F5"/>
  <polygon points="21.97,23.86 22.27,26.39 23.74,27.39 25.74,28.16 26.33,26.56" fill="#F4F4F5"/>
  <polygon points="13.25,24.74 16.32,26.86 18.5,25.39 14.25,23.15" fill="#F4F4F5"/>
  <polygon points="47.12,22.97 44.18,23.74 44.0,25.03 45.18,25.86" fill="#F4F4F5"/>
  <polygon points="2.18,22.62 2.0,22.91 1.53,24.8 2.65,24.44 2.65,24.15" fill="#F4F4F5"/>
  <polygon points="48.65,22.62 48.24,22.68 45.77,26.39 50.07,24.5" fill="#F4F4F5"/>
  <polygon points="38.46,22.32 38.7,24.21 42.12,27.39 41.47,27.74 38.88,25.27 39.35,28.74 41.47,30.28 39.46,29.63 39.88,32.22 41.53,34.99 44.88,34.99 44.41,33.57 42.76,33.34 42.88,27.57" fill="#F4F4F5"/>
  <polygon points="9.42,21.97 8.13,23.68 8.42,24.92 10.07,23.56" fill="#F4F4F5"/>
  <polygon points="21.85,22.91 26.68,25.92 27.1,24.74 25.68,24.09 23.09,21.73" fill="#F4F4F5"/>
  <polygon points="23.8,21.5 25.74,23.33 27.33,24.15 28.21,22.32 25.45,21.2" fill="#F4F4F5"/>
  <polygon points="0.94,21.2 1.06,23.97 1.71,21.56" fill="#F4F4F5"/>
  <polygon points="14.78,20.97 14.43,22.56 18.73,24.8 16.85,19.67" fill="#F4F4F5"/>
  <polygon points="48.42,19.38 45.06,22.8 48.42,21.97" fill="#F4F4F5"/>
  <polygon points="11.01,18.67 9.9,21.32 10.54,22.91 11.6,20.73" fill="#F4F4F5"/>
  <polygon points="29.22,18.5 26.15,20.79 29.63,22.03" fill="#F4F4F5"/>
  <polygon points="59.31,17.44 58.43,17.38 57.31,17.91 57.61,18.26 58.78,18.26" fill="#F4F4F5"/>
  <polygon points="18.55,16.9 17.38,19.2 19.44,24.5 20.56,23.15" fill="#F4F4F5"/>
  <polygon points="40.05,15.43 38.35,21.15 43.06,26.74 43.41,23.62 40.23,17.26" fill="#F4F4F5"/>
  <polygon points="33.16,15.37 31.75,17.97 32.4,20.85 33.28,18.44" fill="#F4F4F5"/>
  <polygon points="46.24,15.2 46.0,20.79 47.42,19.44 47.06,16.9" fill="#F4F4F5"/>
  <polygon points="12.78,14.84 11.49,17.67 12.02,19.67 13.49,16.2" fill="#F4F4F5"/>
  <polygon points="50.42,14.49 47.71,16.67 48.06,18.73 49.71,17.08" fill="#F4F4F5"/>
  <polygon points="28.04,13.19 24.09,16.73 23.44,20.85 25.5,20.44 26.09,19.91 26.86,15.61" fill="#F4F4F5"/>
  <polygon points="18.2,12.78 14.9,17.67 14.84,20.09 16.73,18.91 18.26,16.02" fill="#F4F4F5"/>
  <polygon points="55.72,12.37 55.01,13.14 54.6,14.9 55.49,15.96 55.84,16.14 57.25,15.02 56.43,14.25 55.9,12.49" fill="#F4F4F5"/>
  <polygon points="56.49,12.19 56.9,13.67 57.08,13.96 57.84,14.61 58.02,14.31 58.14,13.67 56.84,12.37" fill="#F4F4F5"/>
  <polygon points="15.37,12.13 13.19,14.02 13.9,15.55 14.9,14.61" fill="#F4F4F5"/>
  <polygon points="41.53,10.9 40.58,13.78 40.88,16.96 43.88,23.03 45.3,21.44 43.29,18.67" fill="#F4F4F5"/>
  <polygon points="53.01,10.84 51.3,13.9 50.36,17.2 51.42,17.73 53.54,17.2 52.07,16.02 53.42,11.19" fill="#F4F4F5"/>
  <polygon points="52.36,10.6 46.41,14.08 47.42,16.02 50.89,13.37" fill="#F4F4F5"/>
  <polygon points="57.08,10.19 56.49,11.43 57.72,11.9 58.84,13.67 58.55,14.84 56.25,16.67 56.84,17.32 58.25,16.73 59.61,16.79 60.08,16.08 59.55,14.96 60.26,14.9 58.73,12.96 58.37,11.43" fill="#F4F4F5"/>
  <polygon points="34.34,10.19 32.81,10.07 30.45,13.43 29.86,18.44 30.57,22.38 32.28,22.62 31.04,17.73 33.28,13.61" fill="#F4F4F5"/>
  <polygon points="55.07,10.01 54.13,11.07 52.78,15.61 54.13,16.85 55.19,16.55 53.9,15.2 54.37,12.84 55.43,11.72" fill="#F4F4F5"/>
  <polygon points="31.98,9.95 30.51,9.84 27.57,15.67 26.92,19.32 29.16,17.73 29.86,13.02" fill="#F4F4F5"/>
  <polygon points="36.34,9.78 35.05,10.25 33.81,14.02 33.99,18.38 32.81,21.68 33.28,22.74 36.52,22.85 35.11,16.49" fill="#F4F4F5"/>
  <polygon points="20.85,9.78 16.2,11.43 15.26,16.02 18.02,11.9" fill="#F4F4F5"/>
  <polygon points="29.69,9.78 27.04,9.54 24.8,12.96 24.33,15.55 28.63,11.78" fill="#F4F4F5"/>
  <polygon points="26.15,9.42 23.97,9.25 22.74,12.13 21.85,16.37 22.91,19.5 24.09,12.78" fill="#F4F4F5"/>
  <polygon points="23.21,9.25 18.85,12.02 18.97,16.08 21.15,22.74 22.74,21.15 21.15,16.02" fill="#F4F4F5"/>
  <polygon points="55.49,9.13 55.96,11.01 56.61,9.54" fill="#F4F4F5"/>
  <polygon points="39.11,8.66 37.05,9.54 35.81,15.96 37.17,22.74 37.7,22.91 38.05,11.31" fill="#F4F4F5"/>
  <polygon points="51.89,8.13 48.18,7.78 46.41,13.31 52.01,10.07" fill="#F4F4F5"/>
  <polygon points="52.72,8.01 53.42,9.31 54.84,9.31 54.54,8.84 53.42,7.72 53.19,7.66" fill="#F4F4F5"/>
  <polygon points="42.41,7.3 39.99,8.31 38.88,10.96 38.4,18.55 41.17,9.66" fill="#F4F4F5"/>
  <polygon points="43.23,7.19 42.0,9.66 43.94,18.44 45.35,20.44 45.53,14.02 47.06,9.01 44.0,12.37 43.53,11.96 47.3,7.66" fill="#F4F4F5"/>

</svg>